<svg height="166" viewBox="0 0 250 166" width="250" xmlns="http://www.w3.org/2000/svg"><g fill="none" fill-rule="nonzero"><g transform="translate(0 33)"><path d="m230.681382 105.136756c-.278311.599808-.555822 1.191619-.832534 1.775432-.431861.90691-.858125 1.796225-1.27879 2.667946-.187141.386277-.374281.765355-.556622 1.144434-2.06334 4.215451-3.989924 7.943858-5.6262 11.010077-3.024222 5.658951-8.893487 9.21859-15.309501 9.285029l-36.384357.395873h-.383877l-3.119002.033589-2.667946.028791-8.181382.088772h-.331094l-4.165067.045585h-.12716l-25.671785.278311-22.915067.239923-2.665547.028791-16.5547024.179942h-.0191939l-10.7365643.115164h-.1151631l-33.9491363.367082-10.1559501.110365c-.8647629.009874-1.7293156-.033394-2.5887716-.129559-.2927063-.033589-.5854127-.071977-.8757198-.117562-4.7365674-.731156-9.0796242-3.063147-12.3056622-6.607486-4.36900189-4.805662-7.54798461-10.412668-9.68330131-16.497121-.30870122-.878119-.59660909-1.767434-.86372361-2.667946-7.39203455-24.9880037 1.61948177-57.2264874 17.83829172-78.8003838.6797825-.9021113 1.3707614-1.7818298 2.0729367-2.6391554l.0167946-.0191939c4.9880039-6.1228407 10.5806142-11.2380038 16.5379079-14.8752399 10.5566219-6.456334 22.2528791-8.27495204 33.7571977-2.8550864 9.7336852 4.5873321 18.8219769 6.7442418 27.631958 7.3296545.890115.0575816 1.78023.1007678 2.665547.1271593 20.208733.6357966 39.148272-6.6458733 61.389155-11.34596927.885317-.18714012 1.773033-.371881 2.667947-.54702495 15.866122-3.15738964 33.46689-4.82245682 54.397792-1.32197697 2.174564.35524531 4.320358.86843978 6.420346 1.53550864.922904.29750479 1.81222.61740243 2.667946.95969289 9.990403 4.06429943 15.439059 11.57389636 17.754319 20.98368526.219129.8733205.408669 1.7618362.568618 2.665547 4.105086 22.634357-7.917467 54.7408829-18.322937 77.027351z" fill="#f2f2f2"/><path d="m119.246641 106.912188c-.096717.897398-.246532 1.788275-.448656 2.667946h22.480806v-2.667946zm-18.773992 15.069578 2.665547-.021593v-6.590691c-.914108-.040787-1.804223-.081574-2.665547-.12476zm-55.8829177-15.069578v2.667946h47.6247601v-2.667946zm203.8579657-81.4587331h-17.754319v-20.99088292c-.855726-.34708893-1.745041-.66698657-2.667946-.9596929v21.95057582h-60.830134v-22.17370442c-.894914.17514395-1.78263.35988484-2.667947.54702495v21.62667947h-61.389155v-10.2807102c-.885317-.0263915-1.775432-.0695777-2.665547-.1271593v10.4078695h-61.3891557v-14.8752399c-5.9572937 3.6372361-11.549904 8.7523992-16.5379079 14.8752399h-.0167946v.0191939c-.7037748.8637236-1.3947537 1.7434421-2.0729367 2.6391554h2.0729367v78.8003838h-19.91362765c.26551503.900512.5534229 1.789827.86372361 2.667946h19.04750484v22.461613c.9583533.293106 1.9365713.516814 2.9270633.669385.2903071.045586.5830134.083974.8757198.117563.859456.096165 1.7240087.139432 2.5887716.129558l10.1559501-.110364v-23.272553h61.3987526v22.603167l2.665547-.028791v-22.569578h61.389155v21.919386l2.667947-.028791v-21.890595h60.818138v1.144434c.182341-.379079.369481-.758157.556622-1.144434.420665-.871721.846929-1.761036 1.27879-2.667946.276712-.582214.554223-1.174024.832534-1.775432v-77.0153548h18.334933c-.161549-.9101088-.351088-1.7994242-.568618-2.6679463zm-209.3642037 81.4587331v-78.8003838h61.3891557v78.8003838zm64.0595007 0v-78.8003838h61.384357v78.8003838zm124.87524 0h-60.822936v-78.8003838h60.818138z" fill="#000" opacity=".1"/><path d="m207.075336 128.035029v3.119002l-36.449136.335892-.388676.007198-13.853167.127159-.331094.004799-4.210653.035988h-.12476l-25.666986.237524-42.1329177.391075h-.0359885l-10.712572.100768-.1151632.002399-47.6007677.43666v-3.598848l11.1924184-6.71785 22.4568138-.18714.4798465-.0024.1583493-.002399.4798465-.007198 10.7821497-.088771.4822457-.002399.1535508-.0024.4798465-.002399 3.4572936-.028791.0911709-.002399 8.5292706-.071977h.0695777l66.5547021-.56142 1.629079-.011996h.163148l1.242802-.011997 9.03311-.074376.479846-.007197.443858-.004799h.230326l2.809501-.021593.556622-.007198.746161-.004798 2.339252-.021593 3.711612-.03119.479847-.004799.834932-.004798h.15595l17.924665-.153551z" fill="#65617d"/><path d="m207.075336 128.035029v3.119002l-36.449136.335892-.388676.007198-13.853167.127159-.331094.004799-4.210653.035988h-.12476l-25.666986.237524-42.1329177.391075h-.0359885l-10.712572.100768-.1151632.002399-47.6007677.43666v-3.598848l11.1924184-6.71785 22.4568138-.18714.4798465-.0024.1583493-.002399.4798465-.007198 10.7821497-.088771.4822457-.002399.1535508-.0024.4798465-.002399 3.4572936-.028791.0911709-.002399 8.5292706-.071977h.0695777l66.5547021-.56142 1.629079-.011996h.163148l1.242802-.011997 9.03311-.074376.479846-.007197.443858-.004799h.230326l2.809501-.021593.556622-.007198.746161-.004798 2.339252-.021593 3.711612-.03119.479847-.004799.834932-.004798h.15595l17.924665-.153551z" fill="#000" opacity=".2"/><path d="m71.041267 116.041267v5.87572c.0002641.568047-.3266222 1.085461-.8397315 1.329174-.1871859.090761-.3918192.139873-.5998081.143954l-8.3733205.177543c-.2236233.005364-.4454197-.04146-.6477927-.136756-.5224295-.239455-.8571415-.76168-.8565268-1.336372v-6.053263z" fill="#3f3d56"/><path d="m71.041267 116.041267v5.87572c.0002641.568047-.3266222 1.085461-.8397315 1.329174-.1871859.090761-.3918192.139873-.5998081.143954l-8.3733205.177543c-.2236233.005364-.4454197-.04146-.6477927-.136756-.5224295-.239455-.8571415-.76168-.8565268-1.336372v-6.053263z" fill="#000" opacity=".1"/><path d="m71.5211134 116.041267v5.87572c.0002642.568047-.3266221 1.085461-.8397314 1.329174-.187186.090761-.3918193.139873-.5998081.143954l-8.3733205.177543c-.2236234.005364-.4454198-.04146-.6477927-.136756-.5224295-.239455-.8571415-.76168-.8565268-1.336372v-6.053263z" fill="#3f3d56"/><path d="m163.368522 116.038868h11.317179v7.557582h-11.317179z" fill="#3f3d56"/><path d="m163.368522 116.038868h11.317179v7.557582h-11.317179z" fill="#000" opacity=".1"/><path d="m162.888676 116.038868h11.317179v7.557582h-11.317179z" fill="#3f3d56"/><path d="m71.518714 116.038868v1.192418l-11.3171785.302303v-1.494721z" fill="#000" opacity=".1"/><path d="m91.4947217 74.9424184v40.3550866c-.0060372.511627-.4124004.928545-.9237044.947697l-45.981286 1.223608h-.0119962c-.5206953-.006469-.9412277-.427001-.9476967-.947697v-41.5786946c.006469-.5206953.4270014-.9412277.9476967-.9476967h45.9692899c.5206953.006469.9412277.4270014.9476967.9476967z" fill="#65617d"/><path d="m44.5897313 73.9947217v43.4740883h-.0119962c-.5206953-.006469-.9412277-.427001-.9476967-.947697v-41.5786946c.006469-.5206953.4270014-.9412277.9476967-.9476967z" fill="#000" opacity=".1"/><path d="m46.6866603 76.5714971h42.5863723v35.5686179l-42.5863723.959693z" fill="#387ed1"/><path d="m174.205854 116.038868v1.537907l-11.317178-.302303v-1.235604z" fill="#000" opacity=".1"/><path d="m189.143474 74.9424184v41.5786946c-.006567.525333-.434319.947697-.959693.947697l-45.990883-1.223608c-.511304-.019152-.917667-.43607-.923704-.947697v-40.3550866c.006469-.5206953.427001-.9412277.947697-.9476967h45.969289c.52444.0012701.95074.4232968.957294.9476967z" fill="#65617d"/><path d="m189.143474 74.9424184v41.5786946c-.006567.525333-.434319.947697-.959693.947697v-43.4740883c.525374 0 .953126.4223637.959693.9476967z" fill="#000" opacity=".1"/><path d="m186.082054 76.5714971h-42.586373v35.5686179l42.586373.959693z" fill="#387ed1"/><path d="m140.079175 74.9424184v40.3550866c-.006038.511627-.412401.928545-.923705.947697l-45.9812857 1.223608c-.5253741 0-.9531258-.422364-.9596929-.947697v-41.5786946c.006469-.5206953.4270013-.9412277.9476967-.9476967h45.9692899c.520695.006469.941228.4270014.947697.9476967z" fill="#65617d"/><path d="m95.2711132 76.5714971h42.5863728v35.5686179l-42.5863728.959693z" fill="#387ed1"/><path d="m207.075336 128.035029v3.119002l-36.449136.335892-.388676.007198-13.853167.127159-.331094.004799-4.210653.035988h-.12476l-25.666986.237524-42.1329177.391075h-.0359885l-10.712572.100768-.1151632.002399-47.6007677.43666v-3.598848l48.5868522-.319098h.1151631l9.834453-.067178h.0455854l67.9174664-.448657h.069578l.040787-.002399h.112764l1.149232-.007198h.350288l17.871881-.119961 1.055662-.004799.235125-.002399z" fill="#000" opacity=".1"/><circle cx="116.90499" cy="71.533109" fill="#fbbebe" r="12.315259"/><path d="m129.222649 90.4894434s-23.872361 2.8790787-21.59309 0c.825335-1.0412668 1.053262-4.1266795 1.007677-7.6415547-.014395-1.0676584-.052783-2.1737044-.107965-3.274952-.263916-5.278311-.899712-10.4366603-.899712-10.4366603s20.87332-9.8368522 18.474088-2.0393474c-.959693 3.1501919-.645394 7.5743762.083973 11.7274472.213532 1.2116123.460653 2.3992322.71977 3.5268714.632375 2.7504626 1.40514 5.4667492 2.315259 8.1381958z" fill="#fbbebe"/><path d="m121.432342 89.5129559c2.761516-.5110365 5.68618-1.4395394 8.284549-.3694818.683781.2807102 1.31238.6909789 2.012955.9261036.700576.2351248 1.468331.2927064 2.197697.4582534 2.56238.5806142 4.640115 2.53119 5.974088 4.7984645 1.333974 2.2672745 2.024952 4.8320534 2.701536 7.3704414l1.65547 6.197217c1.43954 5.386276 2.879079 10.818138 3.212572 16.386756-20.041597 1.147152-40.128967 1.261667-60.1823414.34309 1.3051823-2.480806 2.6391554-5.112764 2.5287907-7.917466-.1103646-2.804703-1.7250479-5.571017-1.1420345-8.334933.371881-1.761036 1.5762956-3.212572 2.3128599-4.851247 2.0993282-4.6833018.465451-10.9860849 4.1554702-14.551344 1.6602687-1.6026872 4.0786949-2.2096929 6.3891551-2.1329175 2.946258.0983685 5.962093 1.0172745 8.87716 1.4659309 3.733205.5662188 7.260076.9021113 11.022073.2111325z" fill="#ff6584"/><path d="m152.838292 116.185221-.023993.34309v.023992l-.040787.551824-.319097 4.440979-.386277 5.350287-.110364 1.506718-.239924 3.224568v.040787l-25.671785.239924-42.1281187.455854v.201535h-.0335893v-.201535-.067179l.1079655-3.445297.2063339-6.732246.1775432-5.707773.0167946-.568618c.0212137-.693612.3267965-1.347962.8450251-1.809467s1.2034725-.689529 1.8948982-.630553c1.1324376.09597 2.603167.213532 4.3618042.338292l.7197697.052783c10.1559496.705374 28.9251436 1.617083 47.8646836.479847.398272-.021593.798944-.045586 1.199616-.074377 2.93666-.18474 5.870921-.422264 8.776391-.719769.743528-.077903 1.483378.177499 2.020506.697495.537129.519996.816372 1.251181.762604 1.996843z" fill="#000" opacity=".1"/><path d="m83.9107486 132.564779v-.201535l42.1353164-.458254 25.671785-.239923h.071977v-.040787l.239923-3.224568.103167-1.439539.393475-5.424664.309501-4.294626v-.105566c.014305-.197891.005448-.396775-.026392-.592611.001342-.007941.001342-.016051 0-.023992-.065909-.404912-.230731-.7873-.479846-1.113244-.537084-.68872-1.39154-1.051546-2.260077-.959693-2.905471.297505-5.839732.535029-8.776392.71977-.400672.028791-.801343.052783-1.199616.074376-18.939539 1.12524-37.708733.213532-47.8646832-.479846l-.7197697-.052783c-1.7586373-.12476-3.2293666-.239924-4.3618042-.338292-1.2903086-.10888-2.4543837.774532-2.6967371 2.046545-.0242249.129892-.0386609.26142-.0431862.393474l-.1631478 5.316699-.2231286 6.734645-.1055662 3.445297v.067179.201535z" fill="#3f3d56"/><path d="m152.910269 117.867083-.295106 3.678023-.439059 5.482245-.110365 1.372361-.239923 3.073417-.014396.15355v.040787l-.035988.355087.026391-.355087h-.069577l-25.671785.239924-42.1425147.455854v-.067179l.1175623-3.445297.2399233-6.732246.1535508-4.474568c.0153409-.517182.2917171-.991357.7341651-1.259597.2716821-.166508.5893425-.242141.9069098-.215931.5038388.040787 1.1228407.088772 1.8450096.141555 1.1732245.086372 2.6199616.18714 4.3042226.292706 3.1190019.196737 7.0321497.40787 11.5163152.580614 12.476007.479847 29.318618.640595 45.316698-.760556.71977-.06238 1.463532-.131958 2.190499-.201536.287752-.028696.57767.026288.834933.15835.072871.036297.141983.079693.206334.129558.20886.151337.374325.354859.479847.590211.024477.046824.044556.095819.05998.146353.072074.198779.101502.410502.086373.621402z" fill="#000" opacity=".1"/><path d="m71.5211134 121.151631v.765356c.0002642.568047-.3266221 1.085461-.8397314 1.329174l-9.6209213.184741c-.5224295-.239455-.8571415-.76168-.8565268-1.336372v-.71977z" fill="#000" opacity=".1"/><path d="m71.6386756 123.697217-12.5359885.239923v-2.080134l12.5359885-.239923z" fill="#3f3d56"/><path d="m71.6386756 123.697217-12.5359885.239923v-2.080134l12.5359885-.239923z" fill="#000" opacity=".1"/><path d="m72.1185221 123.697217-12.5359885.239923v-2.080134l12.5359885-.239923z" fill="#3f3d56"/><path d="m162.960652 121.631478v.765355c-.000264.568047.326623 1.085461.839732 1.329175l9.620921.184741c.52243-.239455.857142-.761681.856527-1.336373v-.719769z" fill="#000" opacity=".1"/><path d="m162.840691 124.177063 12.535988.239924v-2.080135l-12.535988-.239923z" fill="#000" opacity=".1"/><path d="m162.360845 124.177063 12.535988.239924v-2.080135l-12.535988-.239923z" fill="#3f3d56"/><path d="m109.114683 75.3071017c.019194 1.6794626-.758157 3.2629559-1.417946 4.8152591-2.402245 5.6545682-3.442664 11.7943537-3.037428 17.9246642.175144 2.639155.619002 5.278311.175144 7.893474s-2.022553 5.223129-4.558541 5.974088c4.205854 2.507198 9.899232 2.243282 13.857965-.638195 2.108925-1.535509 3.680422-3.678023 5.21833-5.784549-.182659 3.784078-1.278298 7.46776-3.193378 10.736564 7.000508-.61983 13.409899-4.178956 17.636756-9.793666 1.03407-1.393954 1.933782-2.924664 2.332054-4.613724.741363-3.1190016-.292706-6.3603644-1.082054-9.4769671-.659622-2.6053613-1.154048-5.2497798-1.480326-7.9174664-.103167-.8541267-.18714-1.7322457.023992-2.5671785.239924-.9764875.880519-1.8018234 1.353167-2.6919386 1.34357-2.5287908 1.374761-5.5902111.686181-8.3685221-.68858-2.7783109-2.036948-5.3406909-3.373321-7.871881-1.070057-2.0297504-2.231286-4.153071-4.189059-5.3454894-1.223609-.743762-2.639156-1.053263-4.049904-1.353167l-6.086852-1.3027831c-1.331574-.2855086-2.701536-.5710173-4.047505-.3622841-2.272073.3550864-3.872361 1.9961613-5.278311 3.6804223-1.101248 1.3099808-3.793186 3.7691939-3.982726 5.4846449-.172744 1.5810941 1.223609 4.2298465 1.461133 5.8973129.3119 2.159309.532629 1.4395393 1.751439 2.7639155.770154.8205374 1.266795 1.7682342 1.28119 2.9174664z" fill="#3f3d56"/><g fill="#f2f2f2"><path d="m72.0393474 80.0359885h-23.8963532c-.0662529 0-.1199616-.0537087-.1199616-.1199616 0-.066253.0537087-.1199616.1199616-.1199616h23.8963532c.066253 0 .1199616.0537086.1199616.1199616 0 .0662529-.0537086.1199616-.1199616.1199616z"/><path d="m72.0393474 82.1952975h-23.8963532c-.0662529 0-.1199616-.0537086-.1199616-.1199616s.0537087-.1199616.1199616-.1199616h23.8963532c.066253 0 .1199616.0537086.1199616.1199616s-.0537086.1199616-.1199616.1199616z"/><path d="m72.0393474 84.3546065h-23.8963532c-.0662529 0-.1199616-.0537086-.1199616-.1199616s.0537087-.1199616.1199616-.1199616h23.8963532c.066253 0 .1199616.0537086.1199616.1199616s-.0537086.1199616-.1199616.1199616z"/></g></g><g transform="translate(54 26)"><path d="m48 29.5960243 1.8717798-4.3405051c2.0217621 1.5086997 4.7154452 2.2929841 7.3731326 2.2929841 1.9617692 0 3.2036231-.7543499 3.2036231-1.8978485-.0299965-3.1970065-11.7526174-.6944808-11.8426068-8.7109448-.0299965-4.0710945 3.5935772-7.20823198 8.7289731-7.20823198 3.0536407 0 6.1012822.75434988 8.279026 2.47259118l-1.7517939 4.4303087c-1.9917657-1.2692236-4.4694742-2.173246-6.8271968-2.173246-1.6018116 0-2.6576874.7543499-2.6576874 1.7182413.0299965 3.1371376 11.8426068 1.4188962 11.9625927 9.076146 0 4.160898-3.5335843 7.0884939-8.6089872 7.0884939-3.7195624-.0059869-7.1331608-.8800748-9.7308552-2.7479888m71.877544-5.9090739c-.93589 1.6284378-2.687684 2.7420019-4.715445 2.7420019-2.993648 0-5.405364-2.4127222-5.405364-5.3942002s2.417715-5.3942002 5.405364-5.3942002c2.021762 0 3.779555 1.1135641 4.715445 2.7420019l5.165392-2.86174c-1.931773-3.4364826-5.651335-5.78933578-9.880837-5.78933578-6.257264 0-11.332667 5.06492048-11.332667 11.30926098s5.075403 11.309261 11.332667 11.309261c4.259498 0 7.949064-2.3229186 9.880837-5.7893358zm-50.9400072-23.3369504h6.4672391v31.5689429h-6.4672391zm58.6431012 0v31.5689429h6.467239v-9.4712815l7.673097 9.4712815h8.279026l-9.760852-11.2493919 9.034937-10.4950421h-7.919068l-7.31314 8.7109448v-18.5354537z" fill="#000"/><path d="m94.5482696 23.6078084c-.9336456 1.5645844-2.8607859 2.7273689-5.0333073 2.7273689-2.9864689 0-5.3924018-2.4534145-5.3924018-5.4851773s2.4119178-5.4851773 5.3924018-5.4851773c2.1725214 0 4.0996617 1.2236633 5.0333073 2.8186871zm0-13.79512973v2.60561143c-1.0533438-1.8080995-3.6747333-3.0682901-6.4218059-3.0682901-5.6677075 0-10.1264637 5.0894653-10.1264637 11.4695606s4.4587562 11.5304394 10.1264637 11.5304394c2.7410877 0 5.3624772-1.2541027 6.4218059-3.0682901v2.6056114h6.4517304v-22.07464263z" fill="#000"/><g transform="translate(0 .35)"><path d="m8.00157729 24.0066351c0 2.2091627-1.78012619 3.9921011-3.98580442 3.9921011s-3.98580442-1.7889416-3.98580442-3.9921011c0-2.2031596 1.78012619-3.9921011 3.98580442-3.9921011h3.98580442zm1.98990536 0c0-2.2091627 1.78012615-3.9921011 3.98580445-3.9921011 2.2056782 0 3.9858044 1.7829384 3.9858044 3.9921011v9.9772512c0 2.2091627-1.7801262 3.9921011-3.9858044 3.9921011-2.2056783 0-3.98580445-1.7829384-3.98580445-3.9921011z" fill="#e01e5a"/><path d="m13.9772871 7.98420221c-2.2056783 0-3.98580445-1.78293839-3.98580445-3.9921011 0-2.20916272 1.78012615-3.99210111 3.98580445-3.99210111 2.2056782 0 3.9858044 1.78293839 3.9858044 3.99210111v3.9921011zm0 2.02306479c2.2056782 0 3.9858044 1.7829384 3.9858044 3.9921011s-1.7801262 3.9921011-3.9858044 3.9921011h-9.99148268c-2.20567824 0-3.98580442-1.7889416-3.98580442-3.9921011 0-2.2031596 1.78012618-3.9921011 3.98580442-3.9921011z" fill="#36c5f0"/><path d="m29.9444795 13.9993681c0-2.2091627 1.7801262-3.9921011 3.9858044-3.9921011s3.9858044 1.7829384 3.9858044 3.9921011-1.7801262 3.9921011-3.9858044 3.9921011h-3.9858044zm-1.9899054 0c0 2.2091627-1.7801262 3.9921011-3.9858044 3.9921011s-3.9858044-1.7829384-3.9858044-3.9921011v-10.00726699c0-2.20916272 1.7801262-3.99210111 3.9858044-3.99210111s3.9858044 1.78293839 3.9858044 3.99210111z" fill="#2eb67d"/><path d="m23.9687697 29.9917852c2.2056782 0 3.9858044 1.7829383 3.9858044 3.9921011 0 2.2091627-1.7801262 3.9921011-3.9858044 3.9921011s-3.9858044-1.7829384-3.9858044-3.9921011v-3.9921011zm0-1.993049c-2.2056782 0-3.9858044-1.7829384-3.9858044-3.9921011s1.7801262-3.9921011 3.9858044-3.9921011h9.9914827c2.2056782 0 3.9858044 1.7829384 3.9858044 3.9921011s-1.7801262 3.9921011-3.9858044 3.9921011z" fill="#ecb22e"/></g></g></g></svg>